<svg width="981" height="1008" viewBox="0 0 981 1008" fill="#000" xmlns="http://www.w3.org/2000/svg">
<path d="M80.0932 796.178L130.08 803.561V822.869L144.849 843.881L136.329 877.386L156.778 873.979V892.151L165.299 918.274L223.239 912.027L219.262 948.372L229.487 951.211L235.735 979.606L271.522 956.89L278.338 965.408L334.574 940.989L341.958 956.89L357.295 965.408L365.816 979.606L384.561 971.087L398.762 990.963L412.963 979.606L427.732 988.124L443.637 971.087L465.79 990.963L474.311 979.606L528.274 1004.59L553.268 983.013L565.197 988.124L574.285 971.087L590.19 979.606L603.255 952.915L648.698 1008L653.243 952.915H666.307L680.508 959.162V940.989H688.461L691.869 923.953L737.88 940.989L731.064 907.484L761.738 904.077L789.003 907.484L777.643 874.546L802.068 877.954V826.844L838.991 839.905L824.222 809.807L859.44 826.844L854.328 809.807L867.961 804.128V791.635L880.457 801.289L875.345 787.092V779.141L867.961 767.216L888.978 763.808L885.002 746.204L923.06 734.278L898.635 678.625L923.06 668.971L933.285 657.046L919.652 638.305L927.604 629.787L942.373 620.701L935.557 600.257L969.071 597.985L949.19 567.319H974.752L949.19 549.147L965.095 543.468L956.006 523.024L974.752 512.802L965.095 505.988L981 498.605L965.095 482.136L974.752 473.05L949.19 462.26L969.071 448.063L933.285 435.57L949.19 421.94L942.373 411.15L956.006 398.657L937.261 387.299L969.071 361.176L937.261 355.497L917.948 331.646L937.261 306.659L892.386 299.844L903.747 280.536L888.978 275.993L898.635 264.068H880.457L883.866 251.574H873.073L898.635 205.007L831.038 224.883L827.062 215.229L835.582 193.65H821.382L827.062 177.749H808.885L797.524 165.255L800.932 149.922L781.619 135.157H746.969L737.88 124.935L716.295 131.75L712.886 114.713H696.413L684.485 90.2941L660.059 95.4051L645.858 77.2327L619.728 73.8253L604.391 85.751L598.711 80.0721L569.173 36.9127L554.972 30.098L537.363 0L528.274 8.51831L519.186 30.098L511.801 23.2834L491.92 48.8383L478.855 34.0732L465.79 30.098L443.637 8.51831L439.093 20.4439L432.276 23.2834L426.596 45.431H416.371L397.058 30.098L387.969 62.4676L366.384 73.8253L360.704 90.2941L311.284 65.8749L304.468 102.788L276.634 96.5408L272.09 110.738L255.617 106.763L243.12 132.318L203.925 124.367L188.588 151.626L169.843 163.552L163.595 183.995L123.264 190.242L130.08 215.797L123.264 234.537L114.743 258.957L93.7261 275.993L65.8923 289.623L44.8749 303.252V334.486L52.8274 353.226L27.2658 377.077L21.5854 402.064L9.08859 410.015L21.5854 429.323L9.08859 436.705L17.6091 452.606L9.08859 462.26L17.6091 474.186L9.08859 480.433L14.2009 496.333L0 524.728L21.5854 550.851L9.08859 569.023L31.8101 591.739L21.5854 595.714V604.232L9.08859 610.479L21.5854 619.565L17.6091 624.676L27.2658 632.059L21.5854 643.984L31.8101 653.07V662.724L36.9224 670.107V676.354L44.3069 684.872L36.9224 696.798L52.8274 706.452V720.081L70.4366 737.686L80.0932 755.858L98.8384 762.673L80.0932 796.178Z"/>
<path d="M80.0932 796.178L130.08 803.561V822.869L144.849 843.881L136.329 877.386L156.778 873.979V892.151L165.299 918.274L223.239 912.027L219.262 948.372L229.487 951.211L235.735 979.606L271.522 956.89L278.338 965.408L334.574 940.989L341.958 956.89L357.295 965.408L365.816 979.606L384.561 971.087L398.762 990.963L412.963 979.606L427.732 988.124L443.637 971.087L465.79 990.963L474.311 979.606L528.274 1004.59L553.268 983.013L565.197 988.124L574.285 971.087L590.19 979.606L603.255 952.915L648.698 1008L653.243 952.915H666.307L680.508 959.162V940.989H688.461L691.869 923.953L737.88 940.989L731.064 907.484L761.738 904.077L789.003 907.484L777.643 874.546L802.068 877.954V826.844L838.991 839.905L824.222 809.807L859.44 826.844L854.328 809.807L867.961 804.128V791.635L880.457 801.289L875.345 787.092V779.141L867.961 767.216L888.978 763.808L885.002 746.204L923.06 734.278L898.635 678.625L923.06 668.971L933.285 657.046L919.652 638.305L927.604 629.787L942.373 620.701L935.557 600.257L969.071 597.985L949.19 567.319H974.752L949.19 549.147L965.095 543.468L956.006 523.024L974.752 512.802L965.095 505.988L981 498.605L965.095 482.136L974.752 473.05L949.19 462.26L969.071 448.063L933.285 435.57L949.19 421.94L942.373 411.15L956.006 398.657L937.261 387.299L969.071 361.176L937.261 355.497L917.948 331.646L937.261 306.659L892.386 299.844L903.747 280.536L888.978 275.993L898.635 264.068H880.457L883.866 251.574H873.073L898.635 205.007L831.038 224.883L827.062 215.229L835.582 193.65H821.382L827.062 177.749H808.885L797.524 165.255L800.932 149.922L781.619 135.157H746.969L737.88 124.935L716.295 131.75L712.886 114.713H696.413L684.485 90.2941L660.059 95.4051L645.858 77.2327L619.728 73.8253L604.391 85.751L598.711 80.0721L569.173 36.9127L554.972 30.098L537.363 0L528.274 8.51831L519.186 30.098L511.801 23.2834L491.92 48.8383L478.855 34.0732L465.79 30.098L443.637 8.51831L439.093 20.4439L432.276 23.2834L426.596 45.431H416.371L397.058 30.098L387.969 62.4676L366.384 73.8253L360.704 90.2941L311.284 65.8749L304.468 102.788L276.634 96.5408L272.09 110.738L255.617 106.763L243.12 132.318L203.925 124.367L188.588 151.626L169.843 163.552L163.595 183.995L123.264 190.242L130.08 215.797L123.264 234.537L114.743 258.957L93.7261 275.993L65.8923 289.623L44.8749 303.252V334.486L52.8274 353.226L27.2658 377.077L21.5854 402.064L9.08859 410.015L21.5854 429.323L9.08859 436.705L17.6091 452.606L9.08859 462.26L17.6091 474.186L9.08859 480.433L14.2009 496.333L0 524.728L21.5854 550.851L9.08859 569.023L31.8101 591.739L21.5854 595.714V604.232L9.08859 610.479L21.5854 619.565L17.6091 624.676L27.2658 632.059L21.5854 643.984L31.8101 653.07V662.724L36.9224 670.107V676.354L44.3069 684.872L36.9224 696.798L52.8274 706.452V720.081L70.4366 737.686L80.0932 755.858L98.8384 762.673L80.0932 796.178Z"/>
<path d="M923 514C923 758.662 724.662 957 480 957C235.338 957 37 758.662 37 514C37 269.338 235.338 71 480 71C724.662 71 923 269.338 923 514Z"/>
</svg>
