<svg width="981" height="1008" xmlns="http://www.w3.org/2000/svg"><path d="M80.093 796.178l49.987 7.383v19.308l14.769 21.012-8.52 33.505 20.449-3.407v18.172l8.521 26.123 57.94-6.247-3.977 36.345 10.225 2.839 6.248 28.395 35.787-22.716 6.816 8.518 56.236-24.419 7.384 15.901 15.337 8.518 8.521 14.198 18.745-8.519 14.201 19.876 14.201-11.357 14.769 8.518 15.905-17.037 22.153 19.876 8.521-11.357 53.963 24.984 24.994-21.577 11.929 5.111 9.088-17.037 15.905 8.519 13.065-26.691L648.698 1008l4.545-55.085h13.064l14.201 6.247v-18.173h7.953l3.408-17.036 46.011 17.036-6.816-33.505 30.674-3.407 27.265 3.407-11.36-32.938 24.425 3.408v-51.11l36.923 13.061-14.769-30.098 35.218 17.037-5.112-17.037 13.633-5.679v-12.493l12.496 9.654-5.112-14.197v-7.951l-7.384-11.925 21.017-3.408-3.976-17.604 38.058-11.926-24.425-55.653 24.425-9.654 10.225-11.925-13.633-18.741 7.952-8.518 14.769-9.086-6.816-20.444 33.514-2.272-19.881-30.666h25.562l-25.562-18.172 15.905-5.679-9.089-20.444 18.746-10.222-9.657-6.814L981 498.605l-15.905-16.469 9.657-9.086-25.562-10.79 19.881-14.197-35.786-12.493 15.905-13.63-6.817-10.79 13.633-12.493-18.745-11.358 31.81-26.123-31.81-5.679-19.313-23.851 19.313-24.987-44.875-6.815 11.361-19.308-14.769-4.543 9.657-11.925h-18.178l3.409-12.494h-10.793l25.562-46.567-67.597 19.876-3.976-9.654 8.52-21.579h-14.2l5.68-15.901h-18.177l-11.361-12.494 3.408-15.333-19.313-14.765h-34.65l-9.089-10.222-21.585 6.815-3.409-17.037h-16.473l-11.928-24.419-24.426 5.111-14.201-18.172-26.13-3.408-15.337 11.926-5.68-5.679-29.538-43.16-14.201-6.814L537.363 0l-9.089 8.518-9.088 21.58-7.385-6.815-19.881 25.555-13.065-14.765-13.065-3.975-22.153-21.58-4.544 11.926-6.817 2.84-5.68 22.147h-10.225l-19.313-15.333-9.089 32.37-21.585 11.357-5.68 16.47-49.42-24.42-6.816 36.913-27.834-6.247-4.544 14.197-16.473-3.975-12.497 25.555-39.195-7.951-15.337 27.259-18.745 11.926-6.248 20.443-40.331 6.247 6.816 25.555-6.816 18.74-8.521 24.42-21.017 17.036-27.834 13.63-21.017 13.629v31.234l7.952 18.74-25.561 23.851-5.68 24.987-12.497 7.951 12.496 19.308-12.496 7.382 8.52 15.901-8.52 9.654 8.52 11.926-8.52 6.247 5.112 15.9L0 524.728l21.585 26.123L9.09 569.023l22.721 22.716-10.225 3.975v8.518L9.09 610.479l12.496 9.086-3.976 5.111 9.657 7.383-5.68 11.925 10.224 9.086v9.654l5.112 7.383v6.247l7.385 8.518-7.385 11.926 15.905 9.654v13.629l17.61 17.605 9.656 18.172 18.745 6.815-18.745 33.505z"/><path d="M80.093 796.178l49.987 7.383v19.308l14.769 21.012-8.52 33.505 20.449-3.407v18.172l8.521 26.123 57.94-6.247-3.977 36.345 10.225 2.839 6.248 28.395 35.787-22.716 6.816 8.518 56.236-24.419 7.384 15.901 15.337 8.518 8.521 14.198 18.745-8.519 14.201 19.876 14.201-11.357 14.769 8.518 15.905-17.037 22.153 19.876 8.521-11.357 53.963 24.984 24.994-21.577 11.929 5.111 9.088-17.037 15.905 8.519 13.065-26.691L648.698 1008l4.545-55.085h13.064l14.201 6.247v-18.173h7.953l3.408-17.036 46.011 17.036-6.816-33.505 30.674-3.407 27.265 3.407-11.36-32.938 24.425 3.408v-51.11l36.923 13.061-14.769-30.098 35.218 17.037-5.112-17.037 13.633-5.679v-12.493l12.496 9.654-5.112-14.197v-7.951l-7.384-11.925 21.017-3.408-3.976-17.604 38.058-11.926-24.425-55.653 24.425-9.654 10.225-11.925-13.633-18.741 7.952-8.518 14.769-9.086-6.816-20.444 33.514-2.272-19.881-30.666h25.562l-25.562-18.172 15.905-5.679-9.089-20.444 18.746-10.222-9.657-6.814L981 498.605l-15.905-16.469 9.657-9.086-25.562-10.79 19.881-14.197-35.786-12.493 15.905-13.63-6.817-10.79 13.633-12.493-18.745-11.358 31.81-26.123-31.81-5.679-19.313-23.851 19.313-24.987-44.875-6.815 11.361-19.308-14.769-4.543 9.657-11.925h-18.178l3.409-12.494h-10.793l25.562-46.567-67.597 19.876-3.976-9.654 8.52-21.579h-14.2l5.68-15.901h-18.177l-11.361-12.494 3.408-15.333-19.313-14.765h-34.65l-9.089-10.222-21.585 6.815-3.409-17.037h-16.473l-11.928-24.419-24.426 5.111-14.201-18.172-26.13-3.408-15.337 11.926-5.68-5.679-29.538-43.16-14.201-6.814L537.363 0l-9.089 8.518-9.088 21.58-7.385-6.815-19.881 25.555-13.065-14.765-13.065-3.975-22.153-21.58-4.544 11.926-6.817 2.84-5.68 22.147h-10.225l-19.313-15.333-9.089 32.37-21.585 11.357-5.68 16.47-49.42-24.42-6.816 36.913-27.834-6.247-4.544 14.197-16.473-3.975-12.497 25.555-39.195-7.951-15.337 27.259-18.745 11.926-6.248 20.443-40.331 6.247 6.816 25.555-6.816 18.74-8.521 24.42-21.017 17.036-27.834 13.63-21.017 13.629v31.234l7.952 18.74-25.561 23.851-5.68 24.987-12.497 7.951 12.496 19.308-12.496 7.382 8.52 15.901-8.52 9.654 8.52 11.926-8.52 6.247 5.112 15.9L0 524.728l21.585 26.123L9.09 569.023l22.721 22.716-10.225 3.975v8.518L9.09 610.479l12.496 9.086-3.976 5.111 9.657 7.383-5.68 11.925 10.224 9.086v9.654l5.112 7.383v6.247l7.385 8.518-7.385 11.926 15.905 9.654v13.629l17.61 17.605 9.656 18.172 18.745 6.815-18.745 33.505z"/><path d="M923 514c0 244.662-198.338 443-443 443S37 758.662 37 514 235.338 71 480 71s443 198.338 443 443z"/></svg>